<svg height="25" width="20" xmlns="http://www.w3.org/2000/svg" viewBox="0 0 20 25"><path fill="#c5c5c5" fill-rule="evenodd" d="M19.8 17.77c-.82-.25-1.56-.83-2.2-1.75-.64-.92-.96-1.97-.96-3.11 0-1.06.3-2.03.9-2.89.34-.49.87-1.03 1.59-1.65-.47-.58-.96-1.06-1.45-1.39-.86-.6-1.85-.91-2.97-.91-.68 0-1.49.17-2.41.48-.92.32-1.59.47-1.99.47-.33 0-.97-.14-1.93-.42-.98-.28-1.78-.42-2.47-.42-1.6 0-2.91.67-3.96 2.01C.9 9.55.38 11.27.38 13.41c0 2.28.69 4.61 2.05 7.01 1.38 2.4 2.76 3.61 4.19 3.61.46 0 1.08-.15 1.84-.47.76-.31 1.43-.46 1.98-.46.58 0 1.29.14 2.11.45.84.29 1.48.44 1.95.44 1.19 0 2.39-.9 3.59-2.73.81-1.21 1.36-2.38 1.71-3.49zM14.56 1.41c0-.09-.01-.18-.01-.27-.02-.09-.05-.19-.07-.31-1.62.37-2.79 1.06-3.49 2.06-.7 1.01-1.06 2.21-1.09 3.59.66-.06 1.13-.14 1.45-.24.5-.17 1.01-.5 1.51-1.01.58-.58 1.02-1.22 1.29-1.92.27-.68.41-1.32.41-1.9z"/></svg>