<svg height="41" width="92" xmlns="http://www.w3.org/2000/svg" viewBox="0 0 92 41"><text font-weight="800" font-style="italic" font-size="21" font-family="Merriweather" fill="#fff" y="28" x="51"><tspan>take</tspan></text><path fill="#fff" fill-rule="evenodd" d="M20.5 41C9.2 41 0 31.8 0 20.5S9.2 0 20.5 0 41 9.2 41 20.5 31.8 41 20.5 41zm0-37.83c-9.56 0-17.33 7.77-17.33 17.33 0 9.56 7.77 17.33 17.33 17.33 9.56 0 17.33-7.77 17.33-17.33 0-9.56-7.77-17.33-17.33-17.33zm0 25.22c-4.35 0-7.89-3.54-7.89-7.89s3.54-7.89 7.89-7.89 7.89 3.54 7.89 7.89-3.54 7.89-7.89 7.89zm0-12.61c-2.6 0-4.72 2.12-4.72 4.72 0 2.6 2.12 4.72 4.72 4.72 2.6 0 4.72-2.12 4.72-4.72 0-2.6-2.12-4.72-4.72-4.72z"/></svg>